<?xml version="1.0" encoding="UTF-8" standalone="no"?>
<svg
   xmlns:dc="http://purl.org/dc/elements/1.1/"
   xmlns:cc="http://creativecommons.org/ns#"
   xmlns:rdf="http://www.w3.org/1999/02/22-rdf-syntax-ns#"
   xmlns:svg="http://www.w3.org/2000/svg"
   xmlns="http://www.w3.org/2000/svg"
   xmlns:sodipodi="http://sodipodi.sourceforge.net/DTD/sodipodi-0.dtd"
   xmlns:inkscape="http://www.inkscape.org/namespaces/inkscape"
   inkscape:version="1.0 (4035a4fb49, 2020-05-01)"
   sodipodi:docname="New AMD Radeon logo (2020).svg"
   viewBox="0 0 1260 407"
   height="407"
   width="1260"
   id="svg833"
   version="1.1">
  <metadata
     id="metadata839">
    <rdf:RDF>
      <cc:Work
         rdf:about="">
        <dc:format>image/svg+xml</dc:format>
        <dc:type
           rdf:resource="http://purl.org/dc/dcmitype/StillImage" />
        <dc:title></dc:title>
      </cc:Work>
    </rdf:RDF>
  </metadata>
  <defs
     id="defs837" />
  <sodipodi:namedview
     inkscape:current-layer="g845"
     inkscape:window-maximized="1"
     inkscape:window-y="-8"
     inkscape:window-x="-8"
     inkscape:cy="-44.487727"
     inkscape:cx="628.54678"
     inkscape:zoom="0.77445028"
     showgrid="false"
     id="namedview835"
     inkscape:window-height="1017"
     inkscape:window-width="1920"
     inkscape:pageshadow="2"
     inkscape:pageopacity="0"
     guidetolerance="10"
     gridtolerance="10"
     objecttolerance="10"
     borderopacity="1"
     bordercolor="rgba(255, 255, 255, 0)"
     pagecolor="rgba(255, 255, 255, 0)" />
  <g
     id="g841"
     inkscape:label="Image"
     inkscape:groupmode="layer">
    <g
       id="g845">
      <path
         id="path861"
         d="m 0,402 v -5 H 17.5 35 V 362.5 328 h 31.919944 31.919943 l 19.830053,34.46611 19.83006,34.46611 20.68555,0.0339 20.68554,0.0339 -11.11727,-19.25 c -6.1145,-10.5875 -15.01999,-26 -19.78999,-34.25 l -8.67272,-15 5.33179,-1.22167 c 12.20449,-2.79642 22.33849,-11.21373 26.32335,-21.86421 C 173.81204,300.42735 174,297.68957 174,275.5 c 0,-22.25408 -0.18404,-24.91685 -2.0706,-29.95915 -2.74,-7.3233 -10.41401,-15.64937 -17.73931,-19.24661 L 148.5,223.5 74.25,223.22526 0,222.95052 -0.00128341,183.72526 -0.00256681,144.5 17.151834,144.79688 c 10.81521,0.18718 17.534272,-0.083 18.182362,-0.73108 0.565379,-0.56537 3.136769,-6.54897 5.714202,-13.29688 L 45.734639,118.5 l 29.651762,-0.26491 29.651759,-0.26491 0.8621,2.26491 c 0.47415,1.2457 2.98631,7.32741 5.58258,13.51491 l 4.72048,11.25 h 18.00675 18.00675 l -0.58281,-2.25 C 151.31346,141.5125 138.0392,111.25 122.13564,75.5 L 93.220083,10.5 H 73.442728 53.665373 l -25.806599,64 C 13.665145,109.7 1.620892,139.4 1.093768,140.5 0.47214462,141.7972 0.11157773,117.46277 0.06768028,71.25 L 0,0 H 246.75872 493.51744 L 515,21.5 536.48256,43 H 570.24128 604 V 76.758722 110.51744 L 625.5,132 647,153.48256 V 76.741278 0 H 953.5 1260 V 203.5 407 H 630 0 Z m 241.05904,-5.75 c 0.5918,-0.9625 4.08567,-8.725 7.76416,-17.25 l 6.68818,-15.5 39.60397,-0.26135 39.60398,-0.26135 7.51053,17.26135 7.51053,17.26135 19.1298,0.27159 C 380.33613,397.93438 388,397.66658 388,397.10313 388,396.5861 371.1784,357.31388 350.61867,309.83154 L 313.23733,223.5 l -17.86942,-0.27159 -17.86941,-0.2716 -37.60915,86.7716 c -20.68503,47.72437 -37.42063,87.10909 -37.19023,87.52159 0.2304,0.4125 8.71354,0.75 18.85142,0.75 16.47821,0 18.54659,-0.18554 19.5085,-1.75 z M 272,326.18542 c 0,-0.88444 22.45007,-52.97777 23.10257,-53.60739 0.29025,-0.28008 21.15718,46.80636 23.73076,53.54869 C 319.01748,326.60916 308.61185,327 295.58333,327 282.6125,327 272,326.63344 272,326.18542 Z m 845,11.55175 0.5,-59.76283 51.5,59.76283 51.5,59.76283 17.75,0.27307 17.75,0.27308 V 310.52307 223 h -17.4922 -17.4922 l -0.2578,59.93973 -0.2578,59.93974 -51.5,-59.89852 -51.5,-59.89851 -18.25,-0.0412 L 1081,223 v 86.83333 c 0,47.75834 0.3103,87.1436 0.6895,87.5228 0.3792,0.37921 8.3667,0.56671 17.75,0.41667 L 1116.5,397.5 Z M 572.45915,394.9294 c 7.74319,-2.8971 15.48767,-10.23777 19.13567,-18.13792 L 594.5,370.5 V 310 249.5 l -2.63517,-5.62001 c -3.70642,-7.90469 -8.99538,-13.32657 -16.70058,-17.12031 L 568.54372,223.5 494.27186,223.23126 420,222.96253 V 240.48126 258 l 68.25,0.0153 c 37.5375,0.008 68.81667,0.37506 69.50927,0.81475 0.99102,0.62914 1.20404,11.64929 1,51.73468 L 558.5,361.5 507.25,361.75908 456,362.01816 V 327.00908 292 h -18 -18 v 52.5 52.5 h 73.46249 c 71.84892,0 73.58404,-0.0455 78.99666,-2.0706 z M 815,379.5 V 362 H 745.5 676 v -17 -17 h 69.5 69.5 v -18 -18 h -87 -87 v 52.5 52.5 h 87 87 z m 200.5,14.53861 c 7.301,-3.59414 14.7172,-11.4206 17.5962,-18.5696 L 1035.5,369.5 v -59 c 0,-55.47402 -0.1132,-59.29881 -1.8941,-64 -2.6612,-7.025 -7.8599,-13.81738 -13.3674,-17.46542 -9.255,-6.13026 -8.984,-6.10894 -73.82499,-5.808 L 887.5,223.5 l -5.62001,2.63517 c -7.90407,3.70613 -13.32654,8.99544 -17.12031,16.69987 l -3.25968,6.61981 -0.28118,58.49059 c -0.27445,57.09044 -0.2306,58.65711 1.83173,65.4469 1.80838,5.9537 3.00195,7.84481 8.28118,13.12092 10.98004,10.97353 6.96205,10.44923 78.16827,10.20013 l 61,-0.21339 z M 897.67573,361.3424 C 897.30408,360.97075 897,337.83981 897,309.94032 c 0,-45.3333 0.16817,-50.79088 1.58179,-51.33333 2.38171,-0.91395 98.72437,-0.69942 100.17748,0.22307 0.99102,0.62914 1.20404,11.64929 1,51.73468 L 999.5,361.5 l -50.57427,0.25907 c -27.81584,0.14249 -50.87834,-0.045 -51.25,-0.41667 z M 815,240.5 V 223 h -87 -87 v 17.5 17.5 h 87 87 z M 574.74147,133.75872 C 586.43366,122.07602 596,112.17602 596,111.75872 596,111.34142 582.5,111 566,111 H 536 V 80.258524 49.517048 L 514,71.5 492,93.482952 V 124.24148 155 h 30.74147 30.74148 z M 201.23903,103.53007 201.5,62.060145 219,82.512512 c 15.61381,18.247958 17.82335,20.449338 20.5,20.424228 2.655,-0.0249 5.01247,-2.38569 20.5,-20.528847 l 17.5,-20.500704 0.26099,41.570531 0.26099,41.57054 16.73901,-0.27413 L 311.5,144.5 311.75704,77.25 312.01408,10 H 297.09339 282.17271 L 260.93913,34.5 C 249.26066,47.975 239.5712,59 239.407,59 239.24279,59 229.57315,47.975 217.91892,34.5 L 196.7294,10 H 181.8647 167 v 66.833333 c 0,36.758337 0.3,67.133337 0.66667,67.499997 C 168.03333,144.7 175.6784,145 184.65569,145 h 16.32237 z M 401.5,144.00761 c 23.14521,-1.82656 38.72916,-8.0753 51,-20.44959 C 464.9288,111.02444 469.5391,98.328532 469.40673,77 469.33337,65.178338 468.98806,62.478761 466.62918,55.285493 459.63819,33.966835 443.51278,19.440304 419.5,12.829306 412.05427,10.779411 408.88452,10.599955 373.75,10.239179 L 336,9.8515455 V 76.759106 c 0,36.799154 0.3,67.207564 0.66667,67.574224 1.00705,1.00706 51.13644,0.7552 64.83333,-0.32572 z M 370,77 V 35 h 10.92764 c 22.0828,0 34.31767,3.411112 42.79016,11.93 14.29311,14.371384 14.77169,44.453628 0.95059,59.75193 C 416.49653,115.7272 405.90118,119 384.7899,119 H 370 Z M 0,275.00685 V 258 h 68.377555 c 57.027135,0 68.568305,0.22984 69.526665,1.3846 0.7838,0.94441 1.06116,6.26949 0.87245,16.75 L 138.5,291.5 69.25,291.75685 0,292.01369 Z M 57.363364,87.75 C 58.653762,84.3125 62.775499,73.2875 66.52278,63.25 70.270061,53.2125 73.622106,45 73.971768,45 c 0.349663,0 2.713511,5.0625 5.252995,11.25 2.539484,6.1875 7.091481,17.2125 10.115549,24.5 L 94.838617,94 H 74.927901 55.017186 Z"
         style="fill: rgba(255, 255, 255, 0)" />
      <path
         id="path847"
         d="m 1,345 v -52 h 68.3 c 51.78889,0 68.59009,-0.29009 69.5,-1.2 1.26456,-1.26456 1.77748,-29.13153 0.59301,-32.21821 C 138.84764,258.16058 131.79194,258 69.893011,258 H 1 v -17 -17 h 72.462487 c 70.646173,0 72.600073,0.0515 77.951633,2.05375 6.77951,2.53654 14.91861,9.69594 18.05173,15.87886 C 172.96749,248.84276 174,256.48669 174,275.5 c 0,18.46179 -1.04604,26.70976 -4.16207,32.81769 -4.91369,9.63162 -15.49809,17.14411 -25.88818,18.37467 -2.72236,0.32242 -4.94975,0.72256 -4.94975,0.88919 0,0.16663 3.98771,7.19145 8.86158,15.61071 4.87387,8.41925 13.85819,23.97024 19.96516,34.55774 L 178.93032,397 159.21516,396.98629 139.5,396.97258 119.49037,362.23629 99.480732,327.5 67.240366,327.23615 35,326.97229 V 361.98615 397 H 18 1 Z m 204.5159,46.272 c 1.36279,-3.1746 18.16625,-41.997 37.34102,-86.272 l 34.86321,-80.5 17.42441,-0.2722 17.42441,-0.27219 36.68161,84.77219 c 20.17489,46.62471 36.97002,85.5597 37.32251,86.5222 0.59569,1.62653 -0.6588,1.75 -17.78017,1.75 h -18.42108 l -7.4925,-17.25 -7.49249,-17.25 -40.06715,-0.26124 -40.06714,-0.26123 -7.42531,17.26123 -7.42531,17.26124 -18.68191,0.272 -18.68192,0.27199 z M 320,327.45182 c 0,-0.83156 -23.80349,-55.58865 -24.44297,-56.22812 -0.30637,-0.30637 -0.69885,-0.36953 -0.87218,-0.14037 -0.27665,0.36578 -11.19084,25.56715 -21.19058,48.93006 L 270.07586,328 h 24.96207 C 308.76707,328 320,327.75332 320,327.45182 Z m 101,17.585 V 293 h 17 17 v 35 35 h 51.37756 c 42.16479,0 51.58048,-0.24451 52.50923,-1.3636 0.8172,-0.98466 1.05965,-15.50457 0.87245,-52.25 L 559.5,258.5 490.25,258.24315 421,257.98631 v -17.01789 -17.0179 l 74.25,0.27474 74.25,0.27474 4.57557,2.25477 c 7.43609,3.66438 12.55213,8.74356 16.13243,16.01618 l 3.292,6.687 V 310.47897 371.5 l -2.93208,5.79048 c -3.57163,7.05349 -9.82074,12.99948 -17.39277,16.54911 L 567.5,396.5 494.25,396.78682 421,397.07365 Z M 641,345 v -52 h 86.5 86.5 v 16.99315 16.99316 L 744.75,327.24315 675.5,327.5 v 17.5 17.5 l 69.25,0.25685 69.25,0.25684 V 380.00685 397 H 727.5 641 Z m 247.97225,50.66465 C 878.53252,393.37166 869.11692,385.81043 864.63733,376.1224 862.5275,371.55947 862.5,370.7087 862.5,310 v -61.5 l 2.46807,-5 c 3.16364,-6.40917 10.16235,-13.41245 16.53193,-16.54277 l 5,-2.45723 h 62 62 l 4.5,2.38666 c 9.7087,5.14919 15.8345,12.58218 18.4568,22.39536 1.476,5.5231 1.6271,12.64381 1.3524,63.71798 l -0.3092,57.5 -2.7038,5.76992 c -3.5468,7.56899 -11.166,14.92891 -18.5347,17.90391 L 1007.5,396.5 951,396.68939 c -41.23196,0.1382 -57.99377,-0.13871 -62.02775,-1.02474 z M 999.88679,361.6364 c 0.81721,-0.98466 1.05961,-15.50457 0.87241,-52.25 L 1000.5,258.5 h -52 -52 l -0.25918,51.43531 c -0.20401,40.48547 0.009,51.60548 1,52.23469 0.69255,0.43965 23.81658,0.80627 51.38674,0.81469 41.12326,0.0126 50.33083,-0.22963 51.25923,-1.34829 z M 1082,310.5 V 224 l 17.75,0.0708 17.75,0.0708 51.5,59.98311 51.5,59.98312 0.2578,-60.05391 0.2578,-60.05391 H 1238.0078 1255 v 86.5 86.5 h -16.9644 -16.9644 l -52.2856,-60.70129 -52.2856,-60.70129 -0.2577,60.70129 -0.2578,60.70129 H 1098.9923 1082 v -86.5 z M 641,241 v -17 h 86.5 86.5 v 17 17 H 727.5 641 Z M 493,123.74107 V 93.48214 L 514,72.5 535,51.51786 V 81.25893 111 h 30.24128 30.24128 L 574,132.5 552.51744,154 H 522.75872 493 Z m 132.24085,7 L 605,110.48213 V 76.241067 42 H 570.74085 536.4817 L 516,21.5 495.5183,1 H 570.75915 646 v 75 c 0,41.25 -0.11662,75 -0.25915,75 -0.14253,0 -9.36753,-9.11652 -20.5,-20.25893 z M 1.4377572,142.27411 C 1.8063897,141.29835 13.844039,111.3625 28.188089,75.75 L 54.268181,11 h 19.148442 19.148443 l 29.217694,65.75 c 16.06973,36.1625 29.21759,66.0875 29.21747,66.5 -1.3e-4,0.4125 -7.76273,0.7437 -17.25023,0.73599 L 116.5,143.97199 110.98544,130.736 105.47088,117.5 75.399881,117.23558 45.328886,116.97116 40.395394,130.23558 35.461902,143.5 18.114709,143.77411 c -16.2581322,0.25691 -17.30511475,0.16274 -16.6769518,-1.5 z M 94.702135,91.75 C 83.991974,65.473939 74.416219,43 73.930608,43 73.473019,43 61.745189,73.231668 54.243061,93.75 53.886582,94.72497 58.433017,95 74.906431,95 H 96.02684 Z M 168,77.5 V 11 h 14.28405 14.28405 l 19.7941,22.91574 c 10.88676,12.603657 20.61489,23.658537 21.61807,24.5664 1.73191,1.567362 2.89578,0.410957 23.06366,-22.91574 L 282.28363,11 H 296.64182 311 V 77.5 144 H 294.51097 278.02194 L 277.76097,102.38578 277.5,60.77155 259.70711,81.385775 c -15.1755,17.581809 -18.19111,20.604665 -20.5,20.549255 -2.25475,-0.0541 -5.62587,-3.479705 -20.17406,-20.500005 C 209.42622,70.195761 201.21372,61 200.78305,61 200.35237,61 200,79.675 200,102.5 V 144 h -16 -16 z m 169,0 V 11 l 34.75,0.01314 c 30.50642,0.01153 35.91012,0.251291 44.25,1.963343 31.62017,6.491142 51.34745,29.139054 52.7636,60.575293 1.54148,34.218074 -15.07541,57.802554 -46.7636,66.371974 -11.87426,3.21115 -23.39282,4.05926 -55.25,4.06805 L 337,144 Z m 67.91337,40.95872 c 17.48704,-4.12195 27.16441,-15.18661 30.1581,-34.481401 1.91905,-12.368589 -1.64875,-26.63433 -8.95673,-35.813213 -1.6045,-2.015258 -5.3242,-5.107552 -8.266,-6.871763 C 409.54004,36.309586 402.76377,35 385.2899,35 H 370 V 77.5 120 l 14.25,-0.0148 c 9.17106,-0.01 16.53583,-0.55359 20.66337,-1.5265 z"
         style="fill:#ffffff" />
    </g>
  </g>
</svg>
